#!OML:ASF E:\Mandelcareful walks\Project 1\Capture day 1\Session 1\Subject1.ASF
:FULLY-SPECIFIED
:DEGREES
135
root -13.8307 14.4851 -3.60398 -158.7 18.1768 184.342
lowerback 24.4608 1.70468 -4.20417
upperback 5.90318 2.05118 -2.39127
thorax -7.09638 1.47165 -0.877686
lowerneck -29.0785 3.05374 0.285082
upperneck 11.4561 5.04544 -4.50531
head 8.32488 1.96312 -0.830935
rclavicle 3.33958e-014 -3.97569e-015
rhumerus -11.0729 9.46827 -74.9974
rradius 72.0007
rwrist -11.7091
rhand -12.7198 -19.5044
rfingers 7.12502
rthumb 13.3633 -49.0559
lclavicle 3.33958e-014 -3.97569e-015
lhumerus 1.19802 -28.8718 56.8836
lradius 69.8307
lwrist 27.2974
lhand -27.7191 -15.2253
lfingers 7.12502
lthumb -1.11459 14.7515
rfemur -40.3246 -21.1733 -3.58433
rtibia 36.9916
rfoot 4.92695 -16.9723
rtoes -13.4906
lfemur -60.6189 16.0284 -12.1237
ltibia 72.0372
lfoot -24.8699 1.93624
ltoes -16.5932
136
root -13.661 14.4931 -3.59739 -158.76 18.2121 184.132
lowerback 24.5177 1.6935 -4.39739
upperback 5.90875 1.99173 -2.32643
thorax -7.12454 1.44643 -0.681039
lowerneck -28.4794 3.17709 1.20705
upperneck 10.7265 5.11306 -5.86337
head 8.0559 1.92867 -1.43499
rclavicle 1.66979e-014 1.11319e-014
rhumerus -11.3993 9.192 -74.8043
rradius 71.9173
rwrist -11.6929
rhand -12.7192 -19.4878
rfingers 7.12502
rthumb 13.3638 -49.0392
lclavicle 1.66979e-014 1.11319e-014
lhumerus 1.40227 -28.9408 57.0024
lradius 69.9229
lwrist 27.2244
lhand -27.5588 -15.4844
lfingers 7.12502
lthumb -0.9598 14.4932
rfemur -40.1485 -21.2588 -3.72634
rtibia 35.6455
rfoot 5.87457 -18.7348
rtoes -13.3774
lfemur -60.1811 16.1732 -11.4981
ltibia 71.6422
lfoot -24.9539 1.92429
ltoes -17.2762
137
root -13.5021 14.4897 -3.58829 -158.703 18.0491 183.666
lowerback 24.4945 1.57969 -4.00402
upperback 5.74921 1.8955 -2.60752
thorax -7.26992 1.38991 -1.18862
lowerneck -28.7433 2.90593 0.738815
upperneck 11.5781 4.7379 -4.86216
head 8.33051 1.79756 -1.07399
rclavicle 4.92986e-014 -2.46493e-014
rhumerus -12.2785 8.33287 -74.9819
rradius 71.909
rwrist -11.5571
rhand -13.0187 -19.2776
rfingers 7.12502
rthumb 13.0752 -48.8477
lclavicle 4.92986e-014 -2.46493e-014
lhumerus 1.77184 -29.767 56.7399
lradius 70.045
lwrist 27.1344
lhand -27.5638 -15.7857
lfingers 7.12502
lthumb -0.964632 14.1919
rfemur -40.3024 -21.3794 -4.07196
rtibia 35.1357
rfoot 6.21881 -19.6504
rtoes -14.7263
lfemur -60.0449 15.8393 -11.1305
ltibia 71.2069
lfoot -24.6837 1.85096
ltoes -16.8018
138
root -13.3158 14.5053 -3.56576 -158.699 17.907 183.201
lowerback 24.4657 1.30532 -4.32486
upperback 5.86721 1.49284 -2.42975
thorax -7.12878 1.20517 -0.684402
lowerneck -29.0188 3.08246 0.369613
upperneck 11.4364 5.17483 -5.0944
head 8.3368 1.9672 -1.02654
rclavicle 1.43125e-014 -4.69132e-014
rhumerus -12.0849 8.73082 -74.7612
rradius 71.8272
rwrist -11.5329
rhand -13.3662 -19.4423
rfingers 7.12502
rthumb 12.7402 -49.0336
lclavicle 1.43125e-014 -4.69132e-014
lhumerus 1.71873 -29.2455 57.0128
lradius 70.1321
lwrist 26.8566
lhand -27.8117 -16.0824
lfingers 7.12502
lthumb -1.20408 13.894
rfemur -40.4692 -20.5635 -4.49915
rtibia 35.5747
rfoot 5.28682 -20.1419
rtoes -15.7187
lfemur -59.6618 15.9491 -10.9058
ltibia 70.5416
lfoot -24.0854 1.97556
ltoes -19.4661
139
root -13.1135 14.5022 -3.54167 -158.841 17.6497 182.718
lowerback 24.6302 1.24747 -4.31015
upperback 5.84063 1.41376 -2.44367
thorax -7.23947 1.1705 -0.691166
lowerneck -28.7798 2.99079 0.385446
upperneck 11.3425 5.05617 -5.17657
head 8.26799 1.90978 -1.07714
rclavicle -2.06736e-014 -1.03368e-014
rhumerus -12.5463 8.25801 -74.387
rradius 71.8566
rwrist -11.6861
rhand -13.2011 -19.6508
rfingers 7.12502
rthumb 12.8993 -49.2321
lclavicle -2.06736e-014 -1.03368e-014
lhumerus 2.04316 -29.8398 57.001
lradius 70.2502
lwrist 26.9201
lhand -27.6935 -16.1276
lfingers 7.12502
lthumb -1.08987 13.8493
rfemur -40.7965 -20.4858 -4.50261
rtibia 36.8985
rfoot 3.96959 -19.6999
rtoes -17.1672
lfemur -59.2164 16.0285 -10.6122
ltibia 69.8984
lfoot -23.5529 2.30481
ltoes -23.2665
140
root -12.8772 14.5021 -3.52051 -159.091 17.5974 182.229
lowerback 24.719 1.25049 -5.05117
upperback 5.92511 1.26847 -2.104
thorax -7.20152 1.11464 0.147317
lowerneck -30.3436 2.63782 0.167334
upperneck 12.5444 4.77925 -5.28942
head 8.91888 1.69783 -1.11382
rclavicle -1.19271e-014 -2.78299e-014
rhumerus -12.4288 8.82871 -73.1798
rradius 71.7935
rwrist -12.4314
rhand -13.0118 -19.6184
rfingers 7.12502
rthumb 13.0818 -49.1881
lclavicle -1.19271e-014 -2.78299e-014
lhumerus 1.87072 -29.5712 57.5726
lradius 70.3294
lwrist 26.8085
lhand -27.3141 -15.9932
lfingers 7.12502
lthumb -0.72349 13.9853
rfemur -41.3814 -20.8844 -4.10262
rtibia 38.8925
rfoot 2.47091 -18.7058
rtoes -19.4405
lfemur -58.4248 16.2903 -10.182
ltibia 69.148
lfoot -23.1601 2.47183
ltoes -24.9876
141
root -12.6615 14.4913 -3.49062 -159.158 17.1144 181.612
lowerback 24.8957 1.00154 -4.9021
upperback 5.78065 0.946518 -2.10299
thorax -7.43864 0.957309 0.153583
lowerneck -30.2785 2.64657 0.539124
upperneck 12.8009 4.76114 -5.80766
head 9.02619 1.63973 -1.35722
rclavicle -8.74653e-015 7.95139e-015
rhumerus -12.9633 8.40494 -73.1165
rradius 71.6646
rwrist -11.9725
rhand -12.4526 -19.3291
rfingers 7.12502
rthumb 13.6208 -48.8635
lclavicle -8.74653e-015 7.95139e-015
lhumerus 1.73557 -29.9189 57.8192
lradius 70.42
lwrist 26.5375
lhand -27.1262 -16.0804
lfingers 7.12502
lthumb -0.542011 13.8986
rfemur -42.298 -22.0459 -3.60902
rtibia 41.2537
rfoot 0.947087 -17.3867
rtoes -21.0217
lfemur -58.1241 15.9097 -9.79513
ltibia 68.3179
lfoot -22.6042 2.7409
ltoes -25.091
142
root -12.4314 14.4811 -3.45635 -159.264 16.676 181.051
lowerback 25.1033 0.744985 -4.7285
upperback 5.65342 0.623541 -2.12451
thorax -7.67344 0.800734 0.12288
lowerneck -28.6593 3.02006 0.215322
upperneck 11.5869 5.2086 -5.39299
head 8.34346 1.94253 -1.10162
rclavicle -2.38542e-014 -9.54166e-015
rhumerus -13.3815 8.0385 -72.8896
rradius 71.5516
rwrist -11.4938
rhand -11.0437 -19.0504
rfingers 7.12502
rthumb 14.9784 -48.4887
lclavicle -2.38542e-014 -9.54166e-015
lhumerus 1.49959 -30.2164 58.0339
lradius 70.5456
lwrist 26.3316
lhand -27.3851 -16.2432
lfingers 7.12502
lthumb -0.792004 13.7351
rfemur -43.3842 -23.0753 -2.99655
rtibia 43.6458
rfoot -0.760994 -16.3205
rtoes -20.8903
lfemur -57.6749 15.7159 -9.27336
ltibia 67.3834
lfoot -22.0241 2.73929
ltoes -25.3696
143
root -12.0943 14.5141 -3.42341 -159.984 17.4434 180.751
lowerback 25.4823 1.41324 -6.55558
upperback 5.7965 1.06967 -1.78204
thorax -7.73395 1.06057 1.39544
lowerneck -28.5559 3.0194 0.200331
upperneck 11.6568 5.21682 -5.41949
head 8.35278 1.94074 -1.10778
rclavicle -1.82882e-014 2.46493e-014
rhumerus -13.6247 7.84692 -72.5055
rradius 71.4363
rwrist -11.2182
rhand -10.1673 -18.5857
rfingers 7.12502
rthumb 15.8225 -47.9591
lclavicle -1.82882e-014 2.46493e-014
lhumerus 1.20481 -30.2555 58.4138
lradius 70.732
lwrist 26.3253
lhand -27.4132 -16.1569
lfingers 7.12502
lthumb -0.819209 13.8212
rfemur -44.1227 -22.1759 -2.25374
rtibia 45.9042
rfoot -3.05947 -16.2392
rtoes -20.3661
lfemur -55.5018 17.2851 -8.36657
ltibia 66.1915
lfoot -21.6763 1.85629
ltoes -26.4815
144
root -11.8231 14.5154 -3.39013 -160.296 17.3507 180.131
lowerback 25.5889 1.38509 -6.99276
upperback 5.82082 0.930249 -1.70488
thorax -7.7509 1.00685 1.77167
lowerneck -28.7467 2.97371 -0.24447
upperneck 11.8373 5.28405 -5.15641
head 8.42626 1.97145 -0.935473
rclavicle -1.35174e-014 4.33351e-014
rhumerus -13.858 7.80132 -72.2753
rradius 71.2078
rwrist -10.9929
rhand -10.2073 -18.2935
rfingers 7.12502
rthumb 15.784 -47.6699
lclavicle -1.35174e-014 4.33351e-014
lhumerus 0.881681 -30.2297 58.7404
lradius 70.9004
lwrist 26.2317
lhand -26.6779 -16.1043
lfingers 7.12502
lthumb -0.10898 13.8754
rfemur -45.1883 -23.0069 -1.44994
rtibia 48.0822
rfoot -5.02003 -15.8684
rtoes -20.2936
lfemur -54.5602 17.4806 -7.83977
ltibia 65.0955
lfoot -20.9391 1.3996
ltoes -27.3799
